HIERARCHY
ROOT root
{
	OFFSET 0.00 0.00 0.00
	CHANNELS 6 Xposition Yposition Zposition Xrotation Yrotation Zrotation
	JOINT back1
	{
		OFFSET 4.33070 0.00000 0.00000
		CHANNELS 3 Xrotation Yrotation Zrotation
		JOINT back2
		{
			OFFSET 4.72440 0.00000 0.00000
			CHANNELS 3 Xrotation Yrotation Zrotation
			JOINT back3
			{
				OFFSET 4.72440 0.00000 0.00000
				CHANNELS 3 Xrotation Yrotation Zrotation
				JOINT back4
				{
					OFFSET 4.72440 0.00000 0.00000
					CHANNELS 3 Xrotation Yrotation Zrotation
					JOINT neck1
					{
						OFFSET 0.00000 0.00000 0.00000
						CHANNELS 3 Xrotation Yrotation Zrotation
						JOINT neck2
						{
							OFFSET 2.56508 0.00000 0.45229
							CHANNELS 3 Xrotation Yrotation Zrotation
							JOINT neck3
							{
								OFFSET 2.44757 0.00000 0.89084
								CHANNELS 3 Xrotation Yrotation Zrotation
								JOINT head
								{
									OFFSET 2.25569 0.00000 1.30233
									CHANNELS 3 Xrotation Yrotation Zrotation
									End Site
									{
										OFFSET 3.87719 0.00000 0.68365
									}
								}
							}
						}
					}
					JOINT L_shoulde
					{
						OFFSET 0.00000 3.14960 0.00000
						CHANNELS 3 Xrotation Yrotation Zrotation
						JOINT L_arm
						{
							OFFSET 1.96850 0.00000 -3.40954
							CHANNELS 3 Xrotation Yrotation Zrotation
							JOINT L_forearm
							{
								OFFSET -2.01980 0.00000 -5.54935
								CHANNELS 3 Xrotation Yrotation Zrotation
								JOINT L_hand
								{
									OFFSET -0.00001 0.00000 -7.87400
									CHANNELS 3 Xrotation Yrotation Zrotation
									JOINT L_finger
									{
										OFFSET 0.76422 0.00000 -2.85214
										CHANNELS 3 Xrotation Yrotation Zrotation
										End Site
										{
											OFFSET 1.67033 0.00000 -1.67033
										}
									}
								}
							}
						}
					}
					JOINT R_shoulde
					{
						OFFSET 0.00000 -3.14960 0.00000
						CHANNELS 3 Xrotation Yrotation Zrotation
						JOINT R_arm
						{
							OFFSET 1.96850 0.00000 -3.40954
							CHANNELS 3 Xrotation Yrotation Zrotation
							JOINT R_forearm
							{
								OFFSET -2.01980 0.00000 -5.54935
								CHANNELS 3 Xrotation Yrotation Zrotation
								JOINT r_hand
								{
									OFFSET -0.00001 0.00000 -7.87400
									CHANNELS 3 Xrotation Yrotation Zrotation
									JOINT r_finger
									{
										OFFSET 0.76422 0.00000 -2.85214
										CHANNELS 3 Xrotation Yrotation Zrotation
										End Site
										{
											OFFSET 1.67033 0.00000 -1.67033
										}
									}
								}
							}
						}
					}
				}
			}
		}
	}
	JOINT L_hip
	{
		OFFSET -1.96850 2.95275 -2.36220
		CHANNELS 3 Xrotation Yrotation Zrotation
		JOINT L_leg
		{
			OFFSET 1.02548 0.00000 -5.81578
			CHANNELS 3 Xrotation Yrotation Zrotation
			JOINT L_foot
			{
				OFFSET -5.06131 0.00000 -6.03183
				CHANNELS 3 Xrotation Yrotation Zrotation
				JOINT L_toe
				{
					OFFSET 0.00000 0.00000 -4.72440
					CHANNELS 3 Xrotation Yrotation Zrotation
					End Site
					{
						OFFSET 1.50796 0.00000 -1.26533
					}
				}
			}
		}
	}
	JOINT R_hip
	{
		OFFSET -1.96850 -2.95275 -2.36220
		CHANNELS 3 Xrotation Yrotation Zrotation
		JOINT R_leg
		{
			OFFSET 1.02548 0.00000 -5.81578
			CHANNELS 3 Xrotation Yrotation Zrotation
			JOINT R_foot
			{
				OFFSET -5.06131 0.00000 -6.03183
				CHANNELS 3 Xrotation Yrotation Zrotation
				JOINT R_toe
				{
					OFFSET 0.00000 0.00000 -4.72440
					CHANNELS 3 Xrotation Yrotation Zrotation
					End Site
					{
						OFFSET 1.50796 0.00000 -1.26533
					}
				}
			}
		}
	}
	JOINT W1
	{
		OFFSET -3.54330 0.00000 0.00000
		CHANNELS 3 Xrotation Yrotation Zrotation
		JOINT W2
		{
			OFFSET -2.97605 0.00000 -3.54672
			CHANNELS 3 Xrotation Yrotation Zrotation
			JOINT W3
			{
				OFFSET -2.23204 0.00000 -2.66004
				CHANNELS 3 Xrotation Yrotation Zrotation
				JOINT W4
				{
					OFFSET -2.23204 0.00000 -2.66004
					CHANNELS 3 Xrotation Yrotation Zrotation
					End Site
					{
						OFFSET -2.48004 0.00000 -2.95560
					}
				}
			}
		}
	}
}
MOTION
Frames: 5
Frame Time: 0.008333
 63.7571 20.5871 -34.1480 -101.0631 -1.8516 -55.6759 4.7577 8.7120 8.0396 2.0332 16.2065 10.4296 -0.2270 4.2278 12.6368 -5.3337 -2.0835 -0.0366 -6.3386 5.1506 20.8567 1.9529 21.5931 10.8000 11.5185 12.6029 4.7145 7.6560 -1.3587 22.6337 4.5135 13.9592 2.9314 -8.6392 -4.2186 1.8637 0.0000 -53.9878 0.0000 0.0000 -2.9422 0.0000 -0.0000 28.7444 0.0000 -0.9673 -7.3724 -21.0615 0.2674 -4.6609 2.0826 0.0000 -28.6352 0.0000 -0.0000 -0.6890 -0.0000 -0.0000 -29.3491 -0.0000 8.7072 5.7358 39.8945 -0.0000 -30.2789 0.0000 -0.0000 -0.5618 0.0000 -0.0000 5.5804 -0.0000 -10.3543 -5.7381 -16.9410 0.0000 2.6840 -0.0000 -0.0000 2.9486 0.0000 0.0000 18.1425 -0.0000 -150.8550 63.8894 135.9037 53.4102 23.0251 -33.8975 33.4144 28.9581 -17.0484 76.0699 13.0898 51.4740
 63.7891 20.6007 -34.1346 -101.1425 -1.6407 -55.0889 4.4849 8.6069 7.9328 1.4092 16.0996 10.5588 -0.0276 4.6063 12.7791 -5.2232 -1.6922 -0.1856 -5.6475 5.6265 20.5469 1.9945 22.0771 10.9487 12.5033 12.2298 5.4047 6.8773 -1.9192 23.2520 3.7841 12.8238 3.3281 -7.6495 -2.1128 2.6963 -0.0000 -56.6022 -0.0000 0.0000 -2.7556 0.0000 0.0000 30.5218 -0.0000 -1.8663 -8.5293 -21.3528 1.4491 -3.3762 2.2084 0.0000 -29.3958 0.0000 -0.0000 -0.5398 -0.0000 -0.0000 -29.3864 0.0000 8.9036 5.6589 39.8116 -0.0000 -30.4809 -0.0000 0.0000 -0.5072 0.0000 -0.0000 5.5470 -0.0000 -10.1432 -5.6140 -17.2312 -0.0000 2.5895 0.0000 0.0000 3.4411 -0.0000 0.0000 18.1778 -0.0000 -150.4066 64.7178 136.0305 53.7624 22.7210 -35.2330 34.5333 29.4902 -16.9455 80.5941 17.5890 53.7699
 63.8153 20.6201 -34.1187 -101.2865 -1.4783 -54.5094 4.1760 8.6289 7.8380 0.8276 16.0393 10.6417 0.1933 4.8494 12.9363 -5.1958 -1.1382 -0.3056 -4.9371 5.7721 20.3267 1.9960 22.4992 11.1084 13.5919 11.9761 6.0368 6.2793 -2.2157 23.3997 3.5045 11.5536 3.4442 -6.9564 -0.0120 3.5821 0.0000 -59.0964 0.0000 0.0000 -2.4672 -0.0000 -0.0000 31.7488 -0.0000 -2.5204 -9.7517 -21.5520 2.4237 -2.3199 2.2369 -0.0000 -30.0198 0.0000 0.0000 -0.4282 -0.0000 -0.0000 -29.3956 -0.0000 9.1195 5.6734 39.6522 0.0000 -30.7067 0.0000 -0.0000 -0.3741 0.0000 -0.0000 5.5342 0.0000 -9.8907 -5.3893 -17.4496 -0.0000 2.4441 0.0000 0.0000 3.9658 -0.0000 -0.0000 18.2071 -0.0000 -149.8436 65.3785 136.0088 54.0375 22.3753 -36.2964 35.9787 29.8273 -17.2143 79.1467 14.4859 51.4051
 63.8387 20.6452 -34.0991 -101.4732 -1.3528 -53.9273 3.8331 8.7260 7.7982 0.3548 16.0373 10.5965 0.3742 5.0045 13.1292 -5.2085 -0.5655 -0.4085 -4.3030 5.7466 20.1850 1.9707 22.8360 11.2282 14.6495 11.8531 6.6387 5.7530 -2.2990 23.3617 3.5058 10.3419 3.3767 -6.4561 1.9695 4.5299 -0.0000 -61.4037 0.0000 -0.0000 -2.0883 -0.0000 0.0000 31.7841 -0.0000 -2.9910 -10.9146 -21.7125 3.2373 -1.4547 2.2176 -0.0000 -30.5484 -0.0000 0.0000 -0.3517 0.0000 -0.0000 -29.3878 0.0000 9.3514 5.7497 39.4498 -0.0000 -30.9549 -0.0000 0.0000 -0.1425 -0.0000 -0.0000 5.5052 -0.0000 -9.6074 -5.0648 -17.6377 -0.0000 2.2316 0.0000 -0.0000 4.5167 0.0000 0.0000 18.2331 -0.0000 -149.0848 65.8667 135.6665 54.2267 22.0766 -36.9669 37.7316 30.0309 -18.1290 71.2067 5.2609 44.3373
 63.8596 20.6753 -34.0750 -101.6769 -1.2522 -53.3676 3.4930 8.8401 7.8435 -0.0731 16.1209 10.4530 0.5570 5.0879 13.3341 -5.2486 -0.0192 -0.4988 -3.8189 5.6123 20.1011 1.9454 23.1335 11.2902 15.5409 11.8134 7.1733 5.3510 -2.2637 23.2040 3.7361 9.2535 3.1711 -6.1286 3.7849 5.5231 -0.0000 -63.5081 -0.0000 0.0000 -1.6462 0.0000 -0.0000 30.5278 0.0000 -3.3071 -12.0038 -21.8511 3.8890 -0.7389 2.1613 0.0000 -31.0037 -0.0000 0.0000 -0.2999 -0.0000 -0.0000 -29.3682 -0.0000 9.5890 5.8674 39.2359 -0.0000 -31.2303 -0.0000 -0.0000 0.1986 0.0000 0.0000 5.4404 -0.0000 -9.2946 -4.6783 -17.7646 0.0000 1.9564 0.0000 0.0000 5.0905 0.0000 0.0000 18.2505 -0.0000 -148.2009 66.2706 135.2279 54.1749 21.8107 -37.6696 39.6741 30.5531 -19.0826 63.8471 -1.3806 37.9251
